<mxfile host="app.diagrams.net" modified="2024-01-03T06:18:47.893Z" agent="Mozilla/5.0 (Windows NT 10.0; Win64; x64; rv:121.0) Gecko/20100101 Firefox/121.0" version="21.5.2" etag="9eGZFGqy1LoU4HTuyvPS" type="github">
  <diagram name="Page-1" id="WlcC8Hai33v4YkpdO-dd">
    <mxGraphModel>
      <root>
        <mxCell id="0" />
        <mxCell id="1" parent="0" />
      </root>
    </mxGraphModel>
  </diagram>
</mxfile>
